<?xml version="1.0" encoding="UTF-8"?>
<svg id="Calque_1" xmlns="http://www.w3.org/2000/svg" version="1.1" viewBox="0 0 24 24">
  <!-- Generator: Adobe Illustrator 30.1.0, SVG Export Plug-In . SVG Version: 2.1.1 Build 136)  -->
  <defs>
    <style>
      .st0 {
        fill: #fff;
        stroke-linecap: round;
        stroke-linejoin: round;
      }

      .st0, .st1 {
        stroke: #fff;
        stroke-width: 1.5px;
      }

      .st1 {
        fill: none;
      }
    </style>
  </defs>
  <path class="st0" d="M14,12l-3.5,2v-4l3.5,2Z"/>
  <path class="st1" d="M2,12.71v-1.42c0-2.9,0-4.34.91-5.27.91-.93,2.33-.97,5.18-1.05,1.35-.04,2.73-.07,3.91-.07s2.56.03,3.91.07c2.85.08,4.28.12,5.18,1.05s.91,2.38.91,5.27v1.42c0,2.9,0,4.34-.91,5.27-.91.93-2.33.97-5.18,1.05-1.35.04-2.73.07-3.91.07s-2.56-.03-3.91-.07c-2.85-.08-4.28-.12-5.18-1.05-.91-.93-.91-2.38-.91-5.27Z"/>
</svg>